<?xml version="1.0" encoding="utf-8"?><svg xmlns="http://www.w3.org/2000/svg" xmlns:xlink="http://www.w3.org/1999/xlink"><symbol viewBox="0 0 384 384" id="clock" xmlns="http://www.w3.org/2000/svg"><path d="M343.594 101.04c-7.953 3.847-11.281 13.417-7.434 21.366C346.672 144.121 352 167.527 352 192c0 88.223-71.777 160-160 160S32 280.223 32 192 103.777 32 192 32c36.559 0 70.902 11.938 99.328 34.52 6.895 5.503 16.977 4.351 22.48-2.567 5.504-6.914 4.352-16.984-2.57-22.48C277.586 14.727 235.238 0 192 0 86.137 0 0 86.137 0 192s86.137 192 192 192 192-86.137 192-192c0-29.336-6.406-57.45-19.04-83.527-3.839-7.97-13.44-11.29-21.366-7.434zm0 0"/><path d="M192 64c-8.832 0-16 7.168-16 16v112c0 8.832 7.168 16 16 16h80c8.832 0 16-7.168 16-16s-7.168-16-16-16h-64V80c0-8.832-7.168-16-16-16zm0 0"/></symbol><symbol viewBox="0 0 512 512" id="mail" xmlns="http://www.w3.org/2000/svg"><path d="M467 61H45C20.218 61 0 81.196 0 106v300c0 24.72 20.128 45 45 45h422c24.72 0 45-20.128 45-45V106c0-24.72-20.128-45-45-45zm-6.214 30L256.954 294.833 51.359 91h409.427zM30 399.788V112.069l144.479 143.24L30 399.788zM51.213 421l144.57-144.57 50.657 50.222c5.864 5.814 15.327 5.795 21.167-.046L317 277.213 460.787 421H51.213zM482 399.787L338.213 256 482 112.212v287.575z"/></symbol><symbol viewBox="0 0 384 384" id="phone" xmlns="http://www.w3.org/2000/svg"><path d="M353.188 252.052c-23.51 0-46.594-3.677-68.469-10.906-10.906-3.719-23.323-.833-30.438 6.417l-43.177 32.594c-50.073-26.729-80.917-57.563-107.281-107.26l31.635-42.052c8.219-8.208 11.167-20.198 7.635-31.448-7.26-21.99-10.948-45.063-10.948-68.583C132.146 13.823 118.323 0 101.333 0H30.812C13.823 0 0 13.823 0 30.812 0 225.563 158.438 384 353.188 384c16.99 0 30.813-13.823 30.813-30.813v-70.323c-.001-16.989-13.824-30.812-30.813-30.812zm9.479 101.136c0 5.229-4.25 9.479-9.479 9.479-182.99 0-331.854-148.865-331.854-331.854 0-5.229 4.25-9.479 9.479-9.479h70.521c5.229 0 9.479 4.25 9.479 9.479 0 25.802 4.052 51.125 11.979 75.115 1.104 3.542.208 7.208-3.375 10.938L82.75 165.427a10.674 10.674 0 0 0-1 11.26c29.927 58.823 66.292 95.188 125.531 125.542 3.604 1.885 8.021 1.49 11.292-.979l49.677-37.635a9.414 9.414 0 0 1 9.667-2.25c24.156 7.979 49.479 12.021 75.271 12.021 5.229 0 9.479 4.25 9.479 9.479v70.323z"/></symbol><symbol viewBox="0 0 512 512" id="pin" xmlns="http://www.w3.org/2000/svg"><path d="M256 0C161.896 0 85.333 76.563 85.333 170.667c0 28.25 7.063 56.26 20.49 81.104L246.667 506.5c1.875 3.396 5.448 5.5 9.333 5.5s7.458-2.104 9.333-5.5l140.896-254.813c13.375-24.76 20.438-52.771 20.438-81.021C426.667 76.563 350.104 0 256 0zm0 256c-47.052 0-85.333-38.281-85.333-85.333S208.948 85.334 256 85.334s85.333 38.281 85.333 85.333S303.052 256 256 256z"/></symbol><symbol viewBox="0 0 85 85" id="services-1" xmlns="http://www.w3.org/2000/svg"><path d="M34.08 63.947c-.438 0-.866.178-1.175.487a1.672 1.672 0 0 0-.486 1.174c0 .436.178.864.486 1.173.31.31.737.487 1.174.487.437 0 .865-.178 1.174-.487.309-.309.486-.737.486-1.174 0-.436-.177-.864-.486-1.173a1.673 1.673 0 0 0-1.174-.487zm18.067 11.905c-.437 0-.865.178-1.174.487a1.672 1.672 0 0 0-.487 1.174c0 .436.178.864.487 1.173.309.31.737.487 1.174.487.436 0 .864-.178 1.173-.487.309-.309.487-.737.487-1.173 0-.437-.178-.865-.487-1.174a1.673 1.673 0 0 0-1.173-.487zm-37.817 0a1.67 1.67 0 0 0-1.174.487 1.672 1.672 0 0 0-.487 1.174c0 .436.178.864.487 1.173a1.67 1.67 0 0 0 1.174.487c.436 0 .864-.178 1.173-.487.31-.309.487-.737.487-1.173 0-.437-.178-.865-.487-1.174a1.673 1.673 0 0 0-1.173-.487z"/><path d="M54.133 57.013l-4.105-4.708h12.556a1.66 1.66 0 0 0 1.044-2.952l-29.22-23.625h5.654a1.66 1.66 0 0 0 0-3.32H29.713a1.66 1.66 0 0 0-1.044 2.951L57.89 48.984H47.132l-.901-1.033a20.346 20.346 0 0 0-15.338-6.976H19.74c-2.43 0-4.744.767-6.692 2.218a11.125 11.125 0 0 0-4.043 5.775l-2.401 8.026h-.232A6.382 6.382 0 0 0 0 63.37v13.155c0 .917.743 1.66 1.66 1.66h5.353C7.775 81.51 10.756 84 14.31 84c3.558 0 6.542-2.495 7.3-5.827h23.218c.757 3.332 3.741 5.827 7.3 5.827 3.557 0 6.54-2.495 7.298-5.827H67.4a1.66 1.66 0 0 0 1.66-1.66v-3.845c0-8.392-6.63-15.264-14.926-15.655zm8.696 7.704h-2.64a1.41 1.41 0 0 1-1.408-1.407v-1.752a12.426 12.426 0 0 1 4.048 3.16zm-19.1-14.584l5.982 6.861H29.27V44.296h1.623c4.922 0 9.6 2.127 12.835 5.837zm-31.543-.213c.991-3.311 4.097-5.624 7.554-5.624h6.21v12.698H10.07l2.116-7.074zM6.373 60.315h.086v1.253a1.975 1.975 0 0 1-1.973 1.974H3.32v-.173a3.058 3.058 0 0 1 3.053-3.054zM14.31 80.68a4.171 4.171 0 0 1-4.167-4.167 4.171 4.171 0 0 1 4.167-4.167 4.171 4.171 0 0 1 4.167 4.167 4.171 4.171 0 0 1-4.167 4.167zm0-11.654c-3.562 0-6.549 2.5-7.302 5.838H3.32v-8.002h1.166a5.3 5.3 0 0 0 5.293-5.294v-1.253h16.17v14.538h-4.34c-.757-3.332-3.741-5.827-7.3-5.827zM52.127 80.68a4.171 4.171 0 0 1-4.167-4.167 4.171 4.171 0 0 1 4.167-4.167 4.171 4.171 0 0 1 4.167 4.167 4.171 4.171 0 0 1-4.167 4.167zm13.611-5.827h-6.312c-.757-3.332-3.741-5.827-7.299-5.827-3.558 0-6.542 2.495-7.3 5.827H29.27V60.315h24.115c.707 0 1.4.063 2.076.178v2.817a4.733 4.733 0 0 0 4.727 4.728h4.647c.58 1.43.904 2.993.904 4.63v2.185zM66.737 1C57.24 1 49.513 8.727 49.513 18.224a17.26 17.26 0 0 0 3.832 10.831l.012.015 12.071 15.472a1.66 1.66 0 0 0 2.618 0l12.013-15.39c.024-.03.046-.061.067-.093a17.253 17.253 0 0 0 3.835-10.835C83.96 8.727 76.234 1 66.737 1zm10.725 26.073a1.697 1.697 0 0 0-.118.16l-10.607 13.59-10.73-13.753a13.93 13.93 0 0 1-3.174-8.846c0-7.667 6.238-13.904 13.904-13.904 7.667 0 13.904 6.237 13.904 13.904 0 3.225-1.13 6.367-3.18 8.849z"/><path d="M66.737 9.923c-4.577 0-8.3 3.724-8.3 8.3 0 4.578 3.723 8.302 8.3 8.302 4.577 0 8.301-3.724 8.301-8.301s-3.724-8.3-8.3-8.3zm0 13.281a4.986 4.986 0 0 1-4.98-4.98 4.986 4.986 0 0 1 4.98-4.98 4.986 4.986 0 0 1 4.98 4.98 4.986 4.986 0 0 1-4.98 4.98zm-19.979 3.525a1.67 1.67 0 0 0 1.173-.487c.31-.309.487-.737.487-1.174 0-.436-.178-.865-.486-1.173a1.672 1.672 0 0 0-1.174-.487c-.439 0-.865.178-1.176.487a1.671 1.671 0 0 0-.484 1.173c0 .437.176.865.484 1.174.31.309.74.486 1.176.486z"/></symbol><symbol viewBox="0 0 79 79" id="services-10" xmlns="http://www.w3.org/2000/svg"><path d="M69.314 25.835H62.6a1.157 1.157 0 0 0 0 2.314h6.714a1.157 1.157 0 0 0 0-2.314zM62.6 18.77h3.048a1.157 1.157 0 0 0 0-2.314H62.6a1.157 1.157 0 1 0 0 2.315zm0-9.379h4.129a1.157 1.157 0 1 0 0-2.314H62.6a1.157 1.157 0 0 0 0 2.314zm4.129 35.203H62.6a1.157 1.157 0 1 0 0 2.314h4.129a1.158 1.158 0 0 0 0-2.314zM62.6 37.529h3.048a1.157 1.157 0 1 0 0-2.315H62.6a1.157 1.157 0 0 0 0 2.315zM28.099 25.12c1.914 1.023 2.03 1.255 2.539 1.255 1.19 0 1.601-1.588.566-2.168l-1.975-1.105 1.453-.595a1.158 1.158 0 0 0-.877-2.142l-3.156 1.292-4.14-2.318 4.14-2.318c3.245 1.298 3.195 1.379 3.594 1.379 1.264 0 1.609-1.75.439-2.228l-1.452-.595 1.974-1.106a1.157 1.157 0 1 0-1.13-2.02l-1.975 1.106.252-1.549a1.158 1.158 0 0 0-2.285-.371l-.547 3.365-4.22 2.363v-4.837l2.668-2.121a1.158 1.158 0 0 0-1.44-1.812l-1.229.976V7.308a1.157 1.157 0 1 0-2.314 0v2.263l-1.228-.976a1.157 1.157 0 1 0-1.44 1.812l2.668 2.121v4.837l-4.22-2.363-.548-3.365a1.157 1.157 0 1 0-2.284.371l.252 1.549-1.975-1.105a1.157 1.157 0 0 0-1.13 2.019l1.974 1.106-1.452.595a1.158 1.158 0 0 0 .877 2.142l3.155-1.293 4.14 2.319-4.14 2.317-3.155-1.292a1.158 1.158 0 0 0-.877 2.142l1.452.595-1.975 1.106c-1.035.579-.624 2.167.567 2.167.51 0 .625-.233 2.54-1.254l-.253 1.55a1.158 1.158 0 0 0 2.284.37l.548-3.364 4.22-2.364v4.837l-2.668 2.122a1.156 1.156 0 1 0 1.44 1.812l1.228-.977v2.264a1.158 1.158 0 0 0 2.314 0v-2.264c1.07.774 1.3 1.228 1.948 1.228 1.091 0 1.579-1.382.721-2.063l-2.669-2.122v-4.837l4.221 2.364.547 3.365a1.157 1.157 0 0 0 2.285-.372l-.252-1.55z"/><path d="M57.576 47.802V10.468C57.576 4.696 52.88 0 47.109 0 41.337 0 36.64 4.696 36.64 10.467v37.335a17.388 17.388 0 0 0-6.887 13.843c0 9.57 7.785 17.355 17.355 17.355s17.354-7.785 17.354-17.355a17.387 17.387 0 0 0-6.887-13.843zM47.109 76.686c-8.294 0-15.04-6.747-15.04-15.04a15.07 15.07 0 0 1 6.395-12.31c.308-.217.492-.57.492-.947V10.468c0-4.495 3.657-8.153 8.153-8.153 4.495 0 8.152 3.658 8.152 8.153V48.39c0 .377.183.73.491.947a15.07 15.07 0 0 1 6.397 12.31c0 8.293-6.748 15.04-15.04 15.04z"/><path d="M52.174 50.095V10.468a5.071 5.071 0 0 0-5.065-5.066 5.072 5.072 0 0 0-5.066 5.065v3.584a1.157 1.157 0 0 0 2.315 0v-3.584a2.755 2.755 0 0 1 2.75-2.75 2.754 2.754 0 0 1 2.752 2.75v34.294h-5.502V18.69a1.157 1.157 0 1 0-2.315 0v31.404c-4.385 1.977-7.278 6.401-7.278 11.256 0 6.807 5.537 12.344 12.343 12.344 6.807 0 12.344-5.537 12.344-12.344 0-4.855-2.893-9.28-7.278-11.256zM47.11 71.38c-5.53 0-10.03-4.498-10.03-10.029 0-4.166 2.622-7.943 6.526-9.396a1.16 1.16 0 0 0 .753-1.085v-3.795h5.502v3.795c0 .483.3.916.753 1.085 3.903 1.453 6.525 5.23 6.525 9.396 0 5.53-4.5 10.03-10.03 10.03z"/></symbol><symbol viewBox="0 0 79 79" id="services-2" xmlns="http://www.w3.org/2000/svg"><path d="M40.283 0a30.283 30.283 0 0 0-24.73 47.755A7.915 7.915 0 0 0 10 55.3v15.8a7.907 7.907 0 0 0 7.9 7.9h44.766a7.908 7.908 0 0 0 7.9-7.9V55.3a7.917 7.917 0 0 0-5.552-7.544A30.284 30.284 0 0 0 40.284 0zm0 2.633A27.64 27.64 0 0 1 61.987 47.4h-9.48a21.066 21.066 0 1 0-24.455 0h-9.48a27.639 27.639 0 0 1 21.71-44.767zM33.47 47.4a18.433 18.433 0 0 1 6.814-35.561c8.843 0 16.44 6.28 18.104 14.965A18.432 18.432 0 0 1 47.097 47.4H33.469zm34.464 17.117h-55.3v-2.634h55.3v2.634zm-5.267 11.85H17.9a5.267 5.267 0 0 1-5.08-3.95h37.997a1.317 1.317 0 0 0 0-2.634H12.633V67.15h55.3v2.633h-11.85a1.317 1.317 0 1 0 0 2.633h11.663a5.266 5.266 0 0 1-5.08 3.95zm5.08-22.384H28.433a1.317 1.317 0 0 0 0 2.634h39.5v2.633h-55.3v-2.633h10.534a1.317 1.317 0 1 0 0-2.634H12.82a5.267 5.267 0 0 1 5.08-3.95h44.766a5.267 5.267 0 0 1 5.08 3.95z"/><path d="M52.374 40.435a15.82 15.82 0 0 0 2.698-4.64v-.008c.02-.034.02-.073.037-.108a15.504 15.504 0 0 0 0-10.797c-.017-.035-.017-.073-.037-.108a15.824 15.824 0 0 0-12.142-10.05h-.014a14.73 14.73 0 0 0-5.266 0h-.013a15.823 15.823 0 0 0-12.142 10.05c-.02.035-.02.073-.038.108a15.512 15.512 0 0 0 0 10.797c.018.035.018.074.038.108v.008a15.801 15.801 0 0 0 2.698 4.64c.065.093.141.176.227.25a15.775 15.775 0 0 0 9.217 5.159h.013a14.73 14.73 0 0 0 5.267 0h.013a15.778 15.778 0 0 0 9.217-5.159c.086-.074.162-.157.227-.25zm-24.083-4.74l6.726-3.891.3.173a5.23 5.23 0 0 0 1.017 1.753v.34l-6.724 3.892a13.127 13.127 0 0 1-1.319-2.272v.005zm-1.174-5.412c.002-.961.11-1.92.321-2.858l4.945 2.858-4.95 2.859a13.181 13.181 0 0 1-.316-2.859zm2.493-7.678l6.724 3.892v.34a5.238 5.238 0 0 0-1.013 1.753l-.304.172-6.73-3.885c.364-.8.807-1.561 1.323-2.272zm22.666 2.272l-6.726 3.886-.3-.173a5.24 5.24 0 0 0-1.017-1.754v-.34l6.723-3.891c.515.711.957 1.473 1.32 2.272zm1.174 5.406c-.003.962-.11 1.92-.321 2.859l-4.946-2.859 4.95-2.858c.21.938.316 1.897.317 2.858zm-15.8 0a2.633 2.633 0 1 1 5.266 0 2.633 2.633 0 0 1-5.266 0zm6.583-6.83v-5.73a13.154 13.154 0 0 1 4.937 2.874l-4.937 2.855zm-12.836-2.856a13.15 13.15 0 0 1 4.937-2.873v5.729l-4.937-2.856zm4.937 16.517v5.73a13.148 13.148 0 0 1-4.937-2.874l4.937-2.856zm7.9-3.044v-.34a5.24 5.24 0 0 0 1.012-1.753l.304-.173 6.73 3.886c-.363.8-.804 1.56-1.317 2.272l-6.73-3.892zm4.936 5.9a13.153 13.153 0 0 1-4.937 2.873v-5.729l4.937 2.856zM41.6 17.184v7.793l-.255.148a5.272 5.272 0 0 0-2.124 0l-.254-.148v-7.793a12.99 12.99 0 0 1 2.633 0zm-2.633 26.202v-7.797l.255-.147c.7.144 1.423.144 2.124 0l.254.148v7.793c-.876.09-1.758.09-2.633 0v.003zM20.533 17.117c.415 0 .805-.196 1.053-.527a24.604 24.604 0 0 1 7.819-6.43 1.317 1.317 0 1 0-1.258-2.313 27.203 27.203 0 0 0-8.667 7.163 1.315 1.315 0 0 0 1.053 2.107zM35.017 6.584a1.317 1.317 0 1 1-2.633 0 1.317 1.317 0 0 1 2.633 0z"/></symbol><symbol viewBox="0 0 79 79" id="services-3" xmlns="http://www.w3.org/2000/svg"><path d="M69.125 56.313H48.004a8.608 8.608 0 0 0 2.605-6.172v-9.875h3.703a3.708 3.708 0 0 0 3.704-3.703v-1.235h6.172a3.708 3.708 0 0 0 3.703-3.703v-2.469a3.708 3.708 0 0 0-3.704-3.703h-6.171V24.22a3.708 3.708 0 0 0-3.703-3.703h-3.704V10.64C50.61 5.877 46.732 2 41.97 2h-4.94c-4.763 0-8.64 3.877-8.64 8.64v9.876h-3.703a3.708 3.708 0 0 0-3.704 3.703v1.234h-6.172a3.708 3.708 0 0 0-3.703 3.703v2.469a3.708 3.708 0 0 0 3.704 3.703h6.171v1.234a3.708 3.708 0 0 0 3.703 3.704h3.704v9.875c0 2.416 1 4.601 2.605 6.172h-1.371c-4.764 0-8.64 3.877-8.64 8.64v4.938c0 4.763 3.877 8.64 8.64 8.64h39.5c4.763 0 8.64-3.877 8.64-8.64v-4.938c0-4.763-3.877-8.64-8.64-8.64zm-1.38 11.1l-2.469 4.941 1.852 3.709h-4.646l-1.852-3.709 2.469-4.94-2.469-4.935 1.852-3.698h4.644l-1.85 3.698 2.469 4.934zm-29.334 4.941l2.469-4.94-2.469-4.935 1.852-3.698h4.645l-1.85 3.698 2.468 4.934-2.469 4.941 1.852 3.709h-4.646l-1.852-3.709zm7.407 0l2.468-4.94-2.468-4.935 1.851-3.698h4.645l-1.85 3.698 2.468 4.934-2.468 4.941 1.851 3.709H47.67l-1.851-3.709zm7.406 0l2.469-4.94-2.47-4.935 1.852-3.698h4.645l-1.85 3.698 2.469 4.934-2.469 4.941 1.852 3.709h-4.647l-1.851-3.709zM34.558 14.49l4.933-2.468 4.942 2.468 3.708-1.851v4.646l-3.708 1.852-4.942-2.47-4.933 2.47-3.699-1.852V12.64l3.699 1.85zM48.14 39.503l-3.708 1.851-4.942-2.468-4.933 2.468-3.699-1.851v-4.645l3.699 1.85 4.933-2.469 4.942 2.47 3.708-1.852v4.646zm0-7.407l-3.708 1.852-4.942-2.469-4.933 2.47-3.699-1.852v-4.645l3.699 1.85 4.933-2.469 4.942 2.469 3.708-1.852v4.646zm-13.583-10.2l4.933-2.47 4.942 2.47 3.708-1.852v4.646l-3.708 1.852-4.942-2.469-4.933 2.469-3.699-1.852v-4.645l3.699 1.85zm-3.699 20.368l3.699 1.85 4.933-2.468 4.942 2.468 3.708-1.851v4.646l-3.708 1.852-4.942-2.47-4.933 2.47-3.699-1.852v-4.645zm33.328-14.342c.682 0 1.235.553 1.235 1.234v2.469c0 .681-.553 1.234-1.234 1.234h-6.172v-4.937h6.172zm-9.874-4.938c.68 0 1.234.553 1.234 1.235v12.343c0 .682-.553 1.235-1.234 1.235h-3.704V22.984h3.703zM37.03 4.47h4.938c3.154 0 5.733 2.387 6.098 5.445l-3.634 1.815-4.942-2.468-4.933 2.468-3.626-1.814c.366-3.058 2.945-5.446 6.1-5.446zM14.812 32.86a1.235 1.235 0 0 1-1.235-1.234v-2.469c0-.681.553-1.234 1.235-1.234h6.171v4.937h-6.172zm9.874 4.938a1.235 1.235 0 0 1-1.234-1.234V24.218c0-.682.553-1.235 1.235-1.235h3.703v14.813h-3.703zM30.86 50.14v-.47l3.699 1.85 4.933-2.47 4.942 2.47 3.708-1.852v.472a6.179 6.179 0 0 1-6.172 6.172h-4.94a6.179 6.179 0 0 1-6.172-6.172zm6.642 8.64l-1.85 3.698 2.469 4.934-2.469 4.941 1.852 3.709h-4.646l-1.852-3.709 2.469-4.94-2.469-4.935 1.852-3.698H37.5zM23.454 69.89v-4.938a6.179 6.179 0 0 1 6.172-6.172h.47l-1.85 3.698 2.469 4.934-2.469 4.941 1.851 3.709h-.471a6.179 6.179 0 0 1-6.172-6.172zm51.844 0c0 3.153-2.387 5.733-5.445 6.097l-1.816-3.634 2.469-4.94-2.469-4.935 1.815-3.625c3.057.365 5.446 2.945 5.446 6.1v4.937z"/><path d="M13.578 20.275l13.439-8.4-13.439-8.4v3.463H1.234v9.875h12.344v3.462zm-9.875-5.931V9.406h12.344V7.931l6.311 3.944-6.311 3.944v-1.475H3.703zM65.422 41.5v-3.462l-13.44 8.4 13.44 8.4v-3.463h12.343V41.5H65.422zm9.875 7.406H62.953v1.475l-6.312-3.944 6.312-3.943v1.475h12.344v4.937z"/></symbol><symbol viewBox="0 0 79 79" id="services-4" xmlns="http://www.w3.org/2000/svg"><path d="M39.5 38.183a3.954 3.954 0 0 0-3.95 3.95 3.954 3.954 0 0 0 3.95 3.95 3.954 3.954 0 0 0 3.95-3.95 3.954 3.954 0 0 0-3.95-3.95zm0 5.267a1.318 1.318 0 0 1 0-2.633 1.317 1.317 0 0 1 0 2.633z"/><path d="M69.268 70.449A39.289 39.289 0 0 0 79 44.5C79 22.72 61.28 5 39.5 5S0 22.72 0 44.5a39.29 39.29 0 0 0 9.286 25.43 4.614 4.614 0 0 0-2.703 4.195 4.614 4.614 0 0 0 4.609 4.608h55.3a4.614 4.614 0 0 0 4.608-4.608c0-1.5-.72-2.834-1.832-3.676zM66.492 76.1H22.21l1.269-1.903-2.191-1.46-2.243 3.363h-7.853a1.977 1.977 0 0 1-1.975-1.975c0-1.09.886-1.975 1.975-1.975H15.8v-2.633h-3.353A37.119 37.119 0 0 1 8.55 64.52l2.714-1.809-1.461-2.191L7.2 62.257a36.64 36.64 0 0 1-4.535-16.44h3.918v-2.634H2.667a36.61 36.61 0 0 1 4.535-16.438l2.601 1.734 1.46-2.191-2.7-1.8a37.146 37.146 0 0 1 10.924-10.925l1.8 2.7 2.192-1.46-1.734-2.6a36.611 36.611 0 0 1 16.438-4.536v2.6h2.634v-2.6a36.61 36.61 0 0 1 16.438 4.536l-1.734 2.6 2.191 1.46 1.8-2.7a37.147 37.147 0 0 1 10.925 10.924l-2.7 1.8 1.46 2.192 2.6-1.734a36.61 36.61 0 0 1 4.536 16.438h-3.916v2.634h3.919a36.635 36.635 0 0 1-4.532 16.442l-2.607-1.738-1.46 2.191 2.71 1.807a37.107 37.107 0 0 1-3.882 4.998h-8.632v2.633h8.559c.12 0 .236.017.35.038.034.006.069.01.102.014a1.98 1.98 0 0 1 1.523 1.923 1.977 1.977 0 0 1-1.975 1.975z"/><path d="M39.5 16.85c-15.246 0-27.65 12.403-27.65 27.65 0 15.246 12.404 27.65 27.65 27.65 15.246 0 27.65-12.404 27.65-27.65 0-15.247-12.404-27.65-27.65-27.65zm20.877 13.901a24.872 24.872 0 0 1 3.571 8.482h-8.177a16.95 16.95 0 0 0-1.151-2.724l5.758-5.758zm-15.61-10.699a24.872 24.872 0 0 1 8.482 3.57L47.49 29.38a17.067 17.067 0 0 0-2.724-1.15v-8.178zm-10.534 0v8.178c-.94.303-1.851.689-2.724 1.15l-5.758-5.757a24.872 24.872 0 0 1 8.482-3.57zm-15.61 10.7l5.757 5.757a16.94 16.94 0 0 0-1.15 2.724h-8.178a24.872 24.872 0 0 1 3.57-8.482zm0 27.497a24.872 24.872 0 0 1-3.57-8.482h8.177c.303.94.689 1.851 1.15 2.724l-5.757 5.758zm15.61 10.699a24.87 24.87 0 0 1-8.482-3.57l5.758-5.758a16.96 16.96 0 0 0 2.724 1.15v8.178zm10.534 0V60.77c.94-.303 1.851-.689 2.724-1.15l5.758 5.757a24.87 24.87 0 0 1-8.482 3.57zm15.61-10.7l-5.757-5.757c.462-.873.847-1.784 1.15-2.724h8.178a24.874 24.874 0 0 1-3.57 8.482zm-5.595-11.115c-.6 0-1.125.407-1.275.988a14.336 14.336 0 0 1-1.651 3.905 1.317 1.317 0 0 0 .192 1.617l6.754 6.754a25.243 25.243 0 0 1-3.405 3.405l-6.753-6.754a1.314 1.314 0 0 0-1.618-.193 14.353 14.353 0 0 1-3.904 1.652c-.582.15-.989.675-.989 1.275v9.593a25.15 25.15 0 0 1-2.633.142c-.89 0-1.767-.05-2.633-.142v-9.593c0-.6-.407-1.125-.99-1.275a14.353 14.353 0 0 1-3.903-1.652 1.314 1.314 0 0 0-1.617.193l-6.754 6.754a25.243 25.243 0 0 1-3.405-3.405l6.754-6.754c.43-.43.509-1.098.193-1.617a14.335 14.335 0 0 1-1.651-3.905 1.318 1.318 0 0 0-1.276-.988h-9.593a25.176 25.176 0 0 1-.142-2.633c0-.89.051-1.767.142-2.633h9.593c.6 0 1.125-.407 1.276-.988a14.31 14.31 0 0 1 1.65-3.905 1.317 1.317 0 0 0-.192-1.617l-6.754-6.754a25.237 25.237 0 0 1 3.405-3.405l6.754 6.754a1.315 1.315 0 0 0 1.617.192 14.358 14.358 0 0 1 3.904-1.651c.583-.15.989-.674.989-1.275v-9.593a25.15 25.15 0 0 1 2.633-.142c.89 0 1.768.05 2.634.142v9.593c0 .6.406 1.125.987 1.274 1.378.356 2.692.912 3.905 1.653a1.315 1.315 0 0 0 1.618-.193l6.753-6.754a25.243 25.243 0 0 1 3.405 3.405l-6.753 6.754a1.315 1.315 0 0 0-.193 1.617 14.308 14.308 0 0 1 1.65 3.905 1.32 1.32 0 0 0 1.276.988h9.594c.09.866.141 1.744.141 2.633 0 .89-.05 1.768-.141 2.633h-9.594z"/><path d="M39.5 32.65c-6.535 0-11.85 5.316-11.85 11.85s5.316 11.85 11.85 11.85 11.85-5.316 11.85-11.85-5.316-11.85-11.85-11.85zm0 21.067c-5.082 0-9.217-4.135-9.217-9.217 0-5.082 4.135-9.217 9.217-9.217 5.081 0 9.217 4.135 9.217 9.217 0 5.082-4.136 9.217-9.217 9.217z"/></symbol><symbol viewBox="0 0 79 79" id="services-5" xmlns="http://www.w3.org/2000/svg"><path d="M39.5 40.55a3.954 3.954 0 0 0-3.95 3.95 3.954 3.954 0 0 0 3.95 3.95 3.954 3.954 0 0 0 3.95-3.95 3.954 3.954 0 0 0-3.95-3.95zm0 5.267a1.318 1.318 0 0 1 0-2.633 1.317 1.317 0 0 1 0 2.633z"/><path d="M69.268 70.449A39.289 39.289 0 0 0 79 44.5C79 22.72 61.28 5 39.5 5S0 22.72 0 44.5a39.29 39.29 0 0 0 9.286 25.43 4.614 4.614 0 0 0-2.703 4.195 4.614 4.614 0 0 0 4.609 4.608h55.3a4.614 4.614 0 0 0 4.608-4.608c0-1.5-.72-2.834-1.832-3.676zM66.492 76.1H22.21l1.269-1.903-2.191-1.46-2.243 3.363h-7.853a1.977 1.977 0 0 1-1.975-1.975c0-1.09.886-1.975 1.975-1.975H15.8v-2.633h-3.353A37.119 37.119 0 0 1 8.55 64.52l2.714-1.809-1.461-2.191L7.2 62.257a36.64 36.64 0 0 1-4.535-16.44h3.918v-2.634H2.667a36.61 36.61 0 0 1 4.535-16.438l2.601 1.734 1.46-2.191-2.7-1.8a37.146 37.146 0 0 1 10.924-10.925l2.258-1.36a36.611 36.611 0 0 1 16.438-4.536h2.634a36.61 36.61 0 0 1 16.438 4.536l2.258 1.36a37.147 37.147 0 0 1 10.924 10.924l-2.7 1.8 1.46 2.192 2.6-1.734a36.612 36.612 0 0 1 4.536 16.438h-3.916v2.634h3.919a36.635 36.635 0 0 1-4.532 16.442l-2.607-1.738-1.46 2.191 2.71 1.807a37.107 37.107 0 0 1-3.882 4.998h-8.632v2.633h8.559c.12 0 .236.017.35.038.034.006.069.01.102.014a1.98 1.98 0 0 1 1.523 1.923 1.977 1.977 0 0 1-1.975 1.975z"/><path d="M39.5 16.85c-15.246 0-27.65 12.403-27.65 27.65 0 15.246 12.404 27.65 27.65 27.65 15.246 0 27.65-12.404 27.65-27.65 0-15.247-12.404-27.65-27.65-27.65zm20.877 13.901a24.872 24.872 0 0 1 3.571 8.482h-8.177a16.95 16.95 0 0 0-1.151-2.724l5.758-5.758zm-15.61-10.699a24.872 24.872 0 0 1 8.482 3.57L47.49 29.38a17.067 17.067 0 0 0-2.724-1.15v-8.178zm-10.534 0v8.178c-.94.303-1.851.689-2.724 1.15l-5.758-5.757a24.872 24.872 0 0 1 8.482-3.57zm-15.61 10.7l5.757 5.757a16.94 16.94 0 0 0-1.15 2.724h-8.178a24.872 24.872 0 0 1 3.57-8.482zm0 27.497a24.872 24.872 0 0 1-3.57-8.482h8.177c.303.94.689 1.851 1.15 2.724l-5.757 5.758zm15.61 10.699a24.87 24.87 0 0 1-8.482-3.57l5.758-5.758a16.96 16.96 0 0 0 2.724 1.15v8.178zm10.534 0V60.77c.94-.303 1.851-.689 2.724-1.15l5.758 5.757a24.87 24.87 0 0 1-8.482 3.57zm15.61-10.7l-5.757-5.757c.462-.873.847-1.784 1.15-2.724h8.178a24.874 24.874 0 0 1-3.57 8.482zm-5.595-11.115c-.6 0-1.125.407-1.275.988a14.336 14.336 0 0 1-1.651 3.905 1.317 1.317 0 0 0 .192 1.617l6.754 6.754a25.243 25.243 0 0 1-3.405 3.405l-6.753-6.754a1.314 1.314 0 0 0-1.618-.193 14.353 14.353 0 0 1-3.904 1.652c-.582.15-.989.675-.989 1.275v9.593a25.15 25.15 0 0 1-2.633.142c-.89 0-1.767-.05-2.633-.142v-9.593c0-.6-.407-1.125-.99-1.275a14.353 14.353 0 0 1-3.903-1.652 1.314 1.314 0 0 0-1.617.193l-6.754 6.754a25.243 25.243 0 0 1-3.405-3.405l6.754-6.754c.43-.43.509-1.098.193-1.617a14.335 14.335 0 0 1-1.651-3.905 1.318 1.318 0 0 0-1.276-.988h-9.593a25.176 25.176 0 0 1-.142-2.633c0-.89.051-1.767.142-2.633h9.593c.6 0 1.125-.407 1.276-.988a14.31 14.31 0 0 1 1.65-3.905 1.317 1.317 0 0 0-.192-1.617l-6.754-6.754a25.237 25.237 0 0 1 3.405-3.405l6.754 6.754a1.315 1.315 0 0 0 1.617.192 14.358 14.358 0 0 1 3.904-1.651c.583-.15.989-.674.989-1.275v-9.593a25.15 25.15 0 0 1 2.633-.142c.89 0 1.768.05 2.634.142v9.593c0 .6.406 1.125.987 1.274 1.378.356 2.692.912 3.905 1.653a1.315 1.315 0 0 0 1.618-.193l6.753-6.754a25.243 25.243 0 0 1 3.405 3.405l-6.753 6.754a1.315 1.315 0 0 0-.193 1.617 14.308 14.308 0 0 1 1.65 3.905 1.32 1.32 0 0 0 1.276.988h9.594c.09.866.141 1.744.141 2.633 0 .89-.05 1.768-.141 2.633h-9.594z"/><path d="M39.5 32.65c-6.535 0-11.85 5.316-11.85 11.85s5.316 11.85 11.85 11.85 11.85-5.316 11.85-11.85-5.316-11.85-11.85-11.85zm0 21.067c-5.082 0-9.217-4.135-9.217-9.217 0-5.082 4.135-9.217 9.217-9.217 5.081 0 9.217 4.135 9.217 9.217 0 5.082-4.136 9.217-9.217 9.217zM27.095 15.912a31.5 31.5 0 0 1 24.108-.29"/></symbol><symbol viewBox="0 0 79 79" id="services-6" xmlns="http://www.w3.org/2000/svg"><g clip-path="url(#kclip0)"><path d="M59.536 70.473l-1.824-2.737-2.191 1.46 1.752 2.63c-4.958 2.721-10.564 4.29-16.457 4.495v-2.588h-2.633v2.6a36.609 36.609 0 0 1-16.438-4.535l1.734-2.601-2.191-1.46-1.801 2.7A37.147 37.147 0 0 1 8.562 59.513l2.702-1.8-1.461-2.192-2.6 1.734a36.611 36.611 0 0 1-4.536-16.438h3.916v-2.634H2.667a36.61 36.61 0 0 1 4.535-16.438l2.601 1.734 1.46-2.191-2.7-1.8A37.146 37.146 0 0 1 19.487 8.562l1.8 2.7 2.192-1.46-1.734-2.6a36.611 36.611 0 0 1 16.438-4.536v2.6h2.634V2.679c5.892.206 11.498 1.774 16.457 4.495L55.52 9.803l2.191 1.46 1.824-2.736a36.857 36.857 0 0 1 13.018 14.626l2.36-1.17C68.193 8.425 54.623 0 39.5 0 17.72 0 0 17.72 0 39.5S17.72 79 39.5 79c15.124 0 28.694-8.424 35.413-21.984l-2.36-1.169a36.854 36.854 0 0 1-13.017 14.626z"/><path d="M77.683 30.283H65.987a18.379 18.379 0 0 0-15.954-9.216c-6.887 0-13.15 3.802-16.343 9.924a1.316 1.316 0 0 0 1.167 1.926h13.314l6.584 6.583-6.584 6.584H34.857a1.316 1.316 0 0 0-1.167 1.925c3.194 6.122 9.456 9.924 16.343 9.924 6.618 0 12.658-3.51 15.955-9.216h11.695c.727 0 1.317-.59 1.317-1.317V31.6c0-.727-.59-1.317-1.317-1.317zm-1.316 15.8H65.209c-.49 0-.94.273-1.168.708-2.738 5.249-8.105 8.509-14.008 8.509a15.743 15.743 0 0 1-12.824-6.583h11.508c.349 0 .684-.14.93-.386l7.9-7.9a1.316 1.316 0 0 0 0-1.862l-7.9-7.9a1.317 1.317 0 0 0-.93-.386H37.209A15.743 15.743 0 0 1 50.033 23.7c5.903 0 11.27 3.26 14.008 8.509.227.435.677.707 1.168.707h11.158v13.167z"/><path d="M39.5 35.55a3.954 3.954 0 0 0-3.95 3.95 3.954 3.954 0 0 0 3.95 3.95 3.954 3.954 0 0 0 3.95-3.95 3.954 3.954 0 0 0-3.95-3.95zm0 5.267c-.726 0-1.317-.591-1.317-1.317s.591-1.317 1.317-1.317a1.318 1.318 0 0 1 0 2.634z"/><path d="M39.5 64.517c-.89 0-1.767-.05-2.633-.142v-9.593c0-.6-.407-1.125-.988-1.275a14.37 14.37 0 0 1-3.905-1.652 1.318 1.318 0 0 0-1.617.193l-6.754 6.754a25.243 25.243 0 0 1-3.405-3.405l6.754-6.754c.43-.43.51-1.098.193-1.617a14.369 14.369 0 0 1-1.652-3.905 1.317 1.317 0 0 0-1.275-.988h-9.593a25.173 25.173 0 0 1-.142-2.633c0-.89.051-1.768.142-2.633h9.593c.6 0 1.125-.407 1.275-.989a14.33 14.33 0 0 1 1.652-3.904 1.317 1.317 0 0 0-.193-1.618l-6.754-6.753a25.243 25.243 0 0 1 3.405-3.405l6.754 6.753a1.316 1.316 0 0 0 1.617.193 14.329 14.329 0 0 1 3.905-1.651c.582-.15.988-.675.988-1.275v-9.593a25.15 25.15 0 0 1 2.633-.142c5.464 0 10.654 1.73 15.01 5.002l1.58-2.107c-4.815-3.616-10.552-5.528-16.59-5.528-15.246 0-27.65 12.403-27.65 27.65 0 15.246 12.404 27.65 27.65 27.65 6.038 0 11.776-1.912 16.59-5.528l-1.58-2.106c-4.356 3.271-9.547 5-15.01 5zm-5.267-49.465v8.177c-.94.305-1.851.689-2.724 1.151l-5.758-5.757a24.868 24.868 0 0 1 8.482-3.57zm-15.61 10.7l5.757 5.757a16.934 16.934 0 0 0-1.15 2.724h-8.178a24.868 24.868 0 0 1 3.57-8.482zm0 27.497a24.872 24.872 0 0 1-3.57-8.482h8.177c.304.94.688 1.85 1.15 2.724l-5.757 5.758zm15.61 10.699a24.868 24.868 0 0 1-8.482-3.57l5.758-5.758a16.96 16.96 0 0 0 2.724 1.15v8.178z"/></g><defs><clipPath id="kclip0"><path d="M0 0h79v79H0z"/></clipPath></defs></symbol><symbol viewBox="0 0 79 79" id="services-7" xmlns="http://www.w3.org/2000/svg"><g clip-path="url(#lclip0)"><path d="M70.36 54.438h-1.238a6.139 6.139 0 0 0 1.237-3.704V38.391a6.14 6.14 0 0 0-1.237-3.703h.003a6.179 6.179 0 0 0 6.172-6.172V16.172A6.179 6.179 0 0 0 69.125 10H30.859a6.179 6.179 0 0 0-6.172 6.172v8.64h2.47V21.11h45.671v2.47H32.094v2.468h40.734v2.469a3.71 3.71 0 0 1-2.895 3.613l1.53-3.061-2.208-1.105-2.127 4.256H64.95l1.576-3.151-2.208-1.105-2.128 4.256h-2.177l1.575-3.151-2.208-1.105-2.127 4.256h-2.178l1.576-3.151-2.208-1.105-2.128 4.256h-2.94v2.468h2.94l2.128 4.256 2.208-1.104-1.576-3.151h2.178l2.127 4.255 2.208-1.104-1.575-3.151h2.177l2.128 4.255 2.208-1.104-1.53-3.062a3.71 3.71 0 0 1 2.895 3.614v2.468H54.312v2.47h13.579v2.468H56.78v2.469h11.11v2.468a3.709 3.709 0 0 1-2.896 3.614l1.53-3.062-2.207-1.104-2.128 4.255h-2.177l1.575-3.15-2.208-1.105-2.127 4.255h-.472v2.47h1.706l2.128 4.255 2.208-1.105-1.576-3.15h2.178l2.127 4.255 2.208-1.105-1.575-3.15h2.177l2.128 4.255 2.208-1.105-1.53-3.06a3.708 3.708 0 0 1 2.894 3.612v2.47h-19.75v2.468h19.75v2.469H51.844v2.468h22.218v2.47a3.709 3.709 0 0 1-2.895 3.613l1.53-3.062-2.207-1.104-2.128 4.255h-2.177l1.575-3.15-2.208-1.105-2.127 4.255h-2.178l1.576-3.15-2.208-1.105-2.128 4.255H56.31l1.575-3.15-2.208-1.105-2.127 4.255h-2.178l1.576-3.15L50.74 72.4l-2.128 4.255h-5.409v2.469H70.36a6.179 6.179 0 0 0 6.172-6.172V60.61a6.179 6.179 0 0 0-6.172-6.172zM27.155 18.64v-2.47c0-.958.373-1.879 1.04-2.567l1.56 3.12 2.207-1.104-1.56-3.122c.151-.02.304-.029.456-.03h1.706l2.128 4.256L36.9 15.62l-1.576-3.151h2.178l2.127 4.255 2.208-1.104-1.575-3.151h2.177l2.128 4.255 2.208-1.104-1.576-3.151h2.178l2.127 4.255 2.208-1.104-1.575-3.151h2.177l2.128 4.255 2.208-1.104-1.576-3.151h2.178l2.127 4.255 2.208-1.104-1.575-3.151h2.177l2.128 4.255 2.208-1.104-1.576-3.151h2.178l2.127 4.255 2.208-1.104-1.53-3.061a3.709 3.709 0 0 1 2.895 3.613v2.469H27.156z"/><path d="M54.313 53.203c0-14.293-11.629-25.922-25.922-25.922-14.294 0-25.922 11.629-25.922 25.922 0 14.293 11.628 25.922 25.922 25.922 14.293 0 25.922-11.629 25.922-25.922zM44.102 67.168l-1.746 1.746 1.714 1.715a23.6 23.6 0 0 1-2.904 2.233l-1.214-2.103-2.138 1.234 1.216 2.108a23.318 23.318 0 0 1-3.385 1.406l-.63-2.354-2.386.639.631 2.354a23.395 23.395 0 0 1-3.635.478v-2.436h-2.469v2.436a23.397 23.397 0 0 1-3.635-.478l.63-2.354-2.384-.639-.63 2.354A23.323 23.323 0 0 1 17.75 74.1l1.216-2.108-2.138-1.234-1.214 2.103a23.605 23.605 0 0 1-2.904-2.233l1.714-1.715-1.745-1.746-1.715 1.715a23.604 23.604 0 0 1-2.233-2.905l2.103-1.214L9.6 62.626l-2.107 1.217a23.317 23.317 0 0 1-1.406-3.386l2.354-.63-.64-2.385-2.354.63a23.388 23.388 0 0 1-.477-3.635h2.436V51.97H4.97c.064-1.223.223-2.438.477-3.636l2.355.631.639-2.384-2.354-.631c.38-1.164.85-2.296 1.406-3.386L9.6 43.78l1.235-2.138-2.103-1.214a23.597 23.597 0 0 1 2.233-2.905l1.715 1.715 1.745-1.746-1.714-1.714a23.613 23.613 0 0 1 2.904-2.233l1.214 2.102 2.139-1.234-1.217-2.107a23.322 23.322 0 0 1 3.386-1.406l.63 2.353 2.385-.639-.631-2.354a23.397 23.397 0 0 1 3.635-.478v2.437h2.469v-2.437c1.222.064 2.438.224 3.635.478l-.63 2.354 2.384.64.63-2.354c1.164.379 2.297.849 3.386 1.406l-1.216 2.107 2.138 1.234 1.214-2.102a23.596 23.596 0 0 1 2.904 2.233l-1.714 1.714 1.745 1.746 1.715-1.715c.819.91 1.565 1.88 2.233 2.905l-2.103 1.214 1.235 2.138 2.107-1.217a23.318 23.318 0 0 1 1.406 3.386l-2.353.63.639 2.385 2.354-.63c.254 1.197.414 2.412.477 3.635h-2.436v2.468h2.436a23.383 23.383 0 0 1-.477 3.636l-2.355-.631-.638 2.385 2.353.63a23.317 23.317 0 0 1-1.406 3.386l-2.107-1.217-1.235 2.138 2.103 1.214a23.606 23.606 0 0 1-2.233 2.905l-1.714-1.715z"/><path d="M41.969 53.203A13.578 13.578 0 1 0 28.39 66.781a13.594 13.594 0 0 0 13.578-13.578zm-7.701 1.91a12.917 12.917 0 0 1 5.221-1.48 11.04 11.04 0 0 1-1.867 5.744 12.906 12.906 0 0 1-3.354-4.264zm2.845-8.778a12.87 12.87 0 0 1-5.089 1.868 12.93 12.93 0 0 1 .206-5.425 11.157 11.157 0 0 1 4.883 3.557zm-7.28-4.145a15.39 15.39 0 0 0 .025 7.66 1.235 1.235 0 0 0 1.268.922c2.59-.152 5.1-.96 7.293-2.345.416.872.716 1.794.891 2.743a15.39 15.39 0 0 0-7.28 2.392 1.234 1.234 0 0 0-.483 1.492 15.376 15.376 0 0 0 4.48 6.206c-.7.665-1.483 1.237-2.33 1.7a15.404 15.404 0 0 0-4.523-6.184 1.234 1.234 0 0 0-1.567 0 15.34 15.34 0 0 0-4.522 6.185 11.164 11.164 0 0 1-2.33-1.7 15.43 15.43 0 0 0 4.48-6.207 1.235 1.235 0 0 0-.485-1.492 15.342 15.342 0 0 0-7.28-2.39c.176-.95.476-1.872.891-2.743a15.433 15.433 0 0 0 7.369 2.346 1.235 1.235 0 0 0 1.194-.924 15.34 15.34 0 0 0 .023-7.66c.957-.13 1.928-.13 2.886 0zM19.16 59.379a11.04 11.04 0 0 1-1.868-5.745c1.826.116 3.606.621 5.221 1.48a12.957 12.957 0 0 1-3.353 4.265zm5.39-16.6c.454 1.773.525 3.623.208 5.425a12.976 12.976 0 0 1-5.09-1.868 11.156 11.156 0 0 1 4.882-3.556zm.82 21.114a12.86 12.86 0 0 1 3.02-4.51 12.936 12.936 0 0 1 3.02 4.51c-1.974.56-4.065.56-6.04 0z"/><path d="M28.39 54.438a1.234 1.234 0 1 0 0-2.47 1.234 1.234 0 0 0 0 2.47z"/></g><defs><clipPath id="lclip0"><path d="M0 0h79v79H0z"/></clipPath></defs></symbol><symbol viewBox="0 0 79 79" id="services-8" xmlns="http://www.w3.org/2000/svg"><path d="M69.163 63.458c1.062-6.705 1.115-14.181.148-21.055a64.736 64.736 0 0 0-.522-3.14c-1.002-5.23-2.587-9.787-4.731-13.572a1.295 1.295 0 0 0-.058-.092 1.038 1.038 0 0 0-.02-.035c-2.632-4.254-6.117-7.841-10.358-10.661-3.942-2.621-8.461-4.535-13.431-5.688-7.468-1.731-16.35-1.606-23.76.334a1.387 1.387 0 0 0-.996 1.697 1.4 1.4 0 0 0 1.709.987 43.65 43.65 0 0 1 5.179-1.012c9.357 1.851 17.722 5.532 24.198 10.655 4.943 3.91 8.433 8.492 9.873 12.873l-19.056-5.817c-4.11-1.255-7.7-.279-9.847 2.677-2.66 3.662-2.352 9.43.73 13.715C34.758 54.41 42.13 58.899 65.3 67.726c-.235.798-.482 1.543-.714 2.1-.554 1.03-4.775 5.459-7.732 6.281-.576.16-1.008.154-1.287-.017a1.308 1.308 0 0 0-.114-.064l-5.817-2.888h-.001L37.07 66.902l-.002-.002c-3.398-1.686-11.496-7.314-18.863-14.547-6.052-5.94-13.256-14.586-13.35-22.132.606-2.74 1.536-5.06 2.81-7.02a1.38 1.38 0 0 0-.05-1.576L4.462 17.38c1.19-.649 2.42-1.27 3.833-1.942.697-.33.99-1.16.657-1.851a1.402 1.402 0 0 0-1.865-.653 75.327 75.327 0 0 0-5.389 2.805 1.38 1.38 0 0 0-.425 2.025l3.534 4.757c-1.216 2.084-2.112 4.477-2.71 7.226a38.436 38.436 0 0 0-.719 4.894c-.458 5.378.006 11.105.379 15.706.005.064.015.127.028.188a3.974 3.974 0 0 0 2.074 2.98 5.765 5.765 0 0 0 .16 3.137 5.803 5.803 0 0 0 2.94 3.372l35.42 17.583a5.878 5.878 0 0 0 2.618.615c1.703 0 3.356-.74 4.483-2.057l4.668 2.318A3.78 3.78 0 0 0 56.11 79c.484 0 1-.077 1.542-.232 3.923-1.119 8.743-6.287 9.46-7.75l.033-.072c.407-.961.832-2.35 1.19-3.7l.003-.013c.41-1.553.73-3.049.825-3.775zm-52.924-9.131a107.362 107.362 0 0 0 5.332 4.88L6.21 51.584l-.001-.001-1.007-.5a1.164 1.164 0 0 1-.649-.956 1.403 1.403 0 0 0-.02-.152c-.287-3.54-.62-7.744-.532-11.867 2.702 6 7.766 11.83 12.238 16.22zm27.39 20.797L8.21 57.54a3.036 3.036 0 0 1-1.537-1.767 3.044 3.044 0 0 1-.16-.937L46.83 74.85a3.1 3.1 0 0 1-3.2.274zm4.634-55.42c-4.712-3.727-10.357-6.727-16.625-8.865 2.726.139 5.406.497 7.916 1.08 6.766 1.569 16.082 5.463 22.042 15.096a1.406 1.406 0 0 0 .068.112c1.667 2.965 2.972 6.457 3.903 10.421l-6.015-1.836c-1.195-5.517-5.171-11.168-11.289-16.007zM30.498 43.712c-2.368-3.292-2.685-7.797-.738-10.479 1.422-1.957 3.82-2.542 6.756-1.646l4.373 1.334-2.774 18.709c-3.102-2.357-5.422-4.866-7.617-7.918zm10.178 9.713l2.917-19.678 22.609 6.9c.123.701.237 1.414.339 2.14.931 6.617.88 13.812-.144 20.26l-.006.041c-.052.404-.191 1.11-.383 1.935-12.244-4.672-19.903-8.074-25.332-11.598z"/><path d="M11.488 14c.172 0 .348-.03.518-.095l.034-.012a1.497 1.497 0 0 0 .863-1.928 1.484 1.484 0 0 0-1.938-.86A1.496 1.496 0 0 0 11.488 14zm-1.403 3.51c-.379-.558-1.102-.676-1.615-.265-.514.411-.623 1.197-.245 1.755l1.69 2.49c.227.334.576.51.93.51.239 0 .48-.08.685-.245.514-.411.623-1.197.245-1.755l-1.69-2.49zm3.197-.51l2.112 2.49c.283.334.72.51 1.163.51.298 0 .598-.08.856-.245.642-.411.779-1.197.305-1.755l-2.112-2.49c-.473-.558-1.377-.676-2.019-.265-.642.411-.778 1.197-.305 1.755zm33.573 51.896c.212.07.438.104.66.104.545 0 1.07-.202 1.33-.552.364-.491.066-1.088-.668-1.333l-.031-.01c-.734-.245-1.625-.045-1.99.447-.365.491-.066 1.088.667 1.333l.032.01zm9.103 4.966c.202.093.418.138.63.138.517 0 1.015-.264 1.263-.72.348-.645.066-1.428-.631-1.75l-5.178-2.392c-.697-.322-1.544-.06-1.893.583-.348.644-.066 1.427.63 1.749l5.179 2.392z"/></symbol><symbol viewBox="0 0 79 79" id="services-9" xmlns="http://www.w3.org/2000/svg"><path d="M73.23 19.206h-3.723v-4.965A1.24 1.24 0 0 0 68.266 13h-9.93a1.24 1.24 0 0 0-1.241 1.241v4.965H52.13v-4.965A1.24 1.24 0 0 0 50.89 13h-9.93a1.24 1.24 0 0 0-1.24 1.241v4.965h-4.965v-4.965A1.24 1.24 0 0 0 33.512 13h-9.93a1.24 1.24 0 0 0-1.24 1.241v4.965h-4.965v-4.965A1.24 1.24 0 0 0 16.136 13h-9.93a1.24 1.24 0 0 0-1.241 1.241v4.965H1.24A1.24 1.24 0 0 0 0 20.447v57.095a1.24 1.24 0 0 0 1.241 1.241h71.99a1.24 1.24 0 0 0 1.24-1.24V20.446a1.24 1.24 0 0 0-1.24-1.241zm-13.653-3.724h7.448v3.724h-7.448v-3.724zm-17.376 0h7.447v3.724H42.2v-3.724zm-17.377 0h7.447v3.724h-7.447v-3.724zm-17.377 0h7.447v3.724H7.447v-3.724zM71.99 76.301H2.482V34.1H71.99v42.2zm0-44.683H2.482v-9.93H71.99v9.93z"/><path d="M67.025 36.583H7.447a1.24 1.24 0 0 0-1.24 1.241v34.753a1.24 1.24 0 0 0 1.24 1.242h59.578a1.24 1.24 0 0 0 1.24-1.242V37.824a1.24 1.24 0 0 0-1.24-1.241zm-1.242 34.753H8.688v-32.27h57.095v32.27z"/><path d="M47.019 52.133a1.24 1.24 0 0 0-1.095-.656h-4.8l1.067-8.534a1.241 1.241 0 0 0-2.305-.78l-8.688 14.895a1.242 1.242 0 0 0 1.073 1.866h4.615l-2.095 8.387a1.24 1.24 0 0 0 2.236.99l9.93-14.894c.253-.38.277-.87.062-1.274zm-8.083 8.829l.744-2.978a1.238 1.238 0 0 0-1.203-1.542h-4.045l4.543-7.79-.488 3.912a1.239 1.239 0 0 0 1.231 1.395h3.887l-4.669 7.003z"/></symbol><symbol viewBox="0 0 360 80.14" id="v" xmlns="http://www.w3.org/2000/svg"><defs><style>.ocls-1{fill:#b60007}.ocls-2{fill:#930000}</style><linearGradient id="oБезымянный_градиент" x1="175.45" y1="87.23" x2="175.92" y2="28.05" gradientTransform="matrix(1 0 0 -1 0 87.24)" gradientUnits="userSpaceOnUse"><stop offset="0" stop-color="#ce1219"/><stop offset="1" stop-color="#6a0004"/></linearGradient></defs><g id="oСлой_2" data-name="Слой 2"><g id="oСлой_1-2" data-name="Слой 1"><path class="ocls-1" d="M0 20.5l49.32-6.94v66.58L0 71.82zm310.69-6.94L360 20.5v51.32l-49.31 8.32z"/><path class="ocls-2" d="M16 0l33.31 13.82v66.32L16 59.18zm319.34 0l-24.66 13.82v66.32l24.66-21z"/><path d="M16 0h319.34v59.18H16z"/></g></g></symbol><symbol viewBox="0 0 24 24" id="viber" xmlns="http://www.w3.org/2000/svg"><path d="M23.155 13.893c.716-6.027-.344-9.832-2.256-11.553l.001-.001C17.814-.6 7.392-1.035 3.7 2.471 2.042 4.186 1.458 6.703 1.394 9.819c-.064 3.117-.14 8.956 5.301 10.54H6.7l-.005 2.419s-.037.98.589 1.177c.716.232 1.04-.223 3.267-2.883 3.724.323 6.584-.417 6.909-.525.752-.252 5.007-.815 5.695-6.654zM10.918 19.37s-2.357 2.939-3.09 3.702c-.24.248-.503.225-.499-.267 0-.323.018-4.016.018-4.016-4.613-1.322-4.341-6.294-4.291-8.895.05-2.602.526-4.733 1.93-6.168C8.225.689 17.362 1.368 19.69 3.556c2.846 2.523 1.833 9.651 1.839 9.894-.585 4.874-4.033 5.183-4.667 5.394-.271.09-2.786.737-5.944.526z"/><path d="M12.222 4.297c-.385 0-.385.6 0 .605 2.987.023 5.447 2.105 5.474 5.924 0 .403.59.398.585-.005h-.001c-.032-4.115-2.718-6.501-6.058-6.524z"/><path d="M16.151 10.193c-.009.398.58.417.585.014.049-2.269-1.35-4.138-3.979-4.335-.385-.028-.425.577-.041.605 2.28.173 3.481 1.729 3.435 3.716zm-.63 2.581c-.494-.286-.997-.108-1.205.173l-.435.563c-.221.286-.634.248-.634.248-3.014-.797-3.82-3.951-3.82-3.951s-.037-.427.239-.656l.544-.45c.272-.216.444-.736.167-1.247-.74-1.337-1.237-1.798-1.49-2.152-.266-.333-.666-.408-1.082-.183h-.009c-.865.506-1.812 1.453-1.509 2.428.517 1.028 1.467 4.305 4.495 6.781 1.423 1.171 3.675 2.371 4.631 2.648l.009.014c.942.314 1.858-.67 2.347-1.561v-.007c.217-.431.145-.839-.172-1.106-.562-.548-1.41-1.153-2.076-1.542z"/><path d="M13.169 8.104c.961.056 1.427.558 1.477 1.589.018.403.603.375.585-.028-.064-1.346-.766-2.096-2.03-2.166-.385-.023-.421.582-.032.605z"/></symbol><symbol viewBox="0 0 512 512" id="whatsapp" xmlns="http://www.w3.org/2000/svg"><path d="M256.064 0h-.128C114.784 0 0 114.816 0 256c0 56 18.048 107.904 48.736 150.048l-31.904 95.104 98.4-31.456C155.712 496.512 204 512 256.064 512 397.216 512 512 397.152 512 256S397.216 0 256.064 0zm148.96 361.504c-6.176 17.44-30.688 31.904-50.24 36.128-13.376 2.848-30.848 5.12-89.664-19.264-75.232-31.168-123.68-107.616-127.456-112.576-3.616-4.96-30.4-40.48-30.4-77.216s18.656-54.624 26.176-62.304c6.176-6.304 16.384-9.184 26.176-9.184 3.168 0 6.016.16 8.576.288 7.52.32 11.296.768 16.256 12.64 6.176 14.88 21.216 51.616 23.008 55.392 1.824 3.776 3.648 8.896 1.088 13.856-2.4 5.12-4.512 7.392-8.288 11.744-3.776 4.352-7.36 7.68-11.136 12.352-3.456 4.064-7.36 8.416-3.008 15.936 4.352 7.36 19.392 31.904 41.536 51.616 28.576 25.44 51.744 33.568 60.032 37.024 6.176 2.56 13.536 1.952 18.048-2.848 5.728-6.176 12.8-16.416 20-26.496 5.12-7.232 11.584-8.128 18.368-5.568 6.912 2.4 43.488 20.48 51.008 24.224 7.52 3.776 12.48 5.568 14.304 8.736 1.792 3.168 1.792 18.048-4.384 35.52z"/></symbol></svg>